<svg width="569" height="467" xmlns="http://www.w3.org/2000/svg" xmlns:xlink="http://www.w3.org/1999/xlink" xml:space="preserve" overflow="hidden"><g transform="translate(-2511 -747)"><g><path d="M2540.24 1196.72C2539.37 1180.34 2548.28 1152.94 2565.12 1118.01L2568.92 1110.51 2575.91 1121.9 2581.05 1128.52 2573.79 1143.01C2562.23 1167.46 2558.35 1183.44 2564.02 1187.85 2582.14 1201.95 2691.11 1092.22 2807.41 942.754 2821.95 924.071 2835.92 905.652 2849.19 887.695L2879.51 845.553 2881.98 847.905C2885.68 851.824 2889.15 855.933 2892.38 860.215L2895.21 864.404 2892.33 868.641C2872.39 897.411 2850.39 927.377 2826.73 957.785 2700.54 1119.96 2574.9 1233.27 2546.11 1210.86 2542.51 1208.06 2540.59 1203.28 2540.24 1196.72Z" fill="#000000" fill-rule="evenodd" fill-opacity="1"/><path d="M2827 751 2962.97 751C3027 751 3078.9 802.907 3078.9 866.937L3078.9 866.937C3078.9 914.96 3049.71 956.163 3008.1 973.763L2998.58 976.719 3015.42 983.245C3055.72 1003.66 3082.02 1046.77 3078.72 1094.68L3078.72 1094.68C3074.88 1150.57 3032.02 1194.48 2978.57 1201.64L2967.19 1202 2935.7 1167.35 2960.18 1169.04C3007.31 1172.28 3048.2 1136.03 3051.5 1088.07L3051.5 1088.07C3054.8 1040.11 3019.27 998.603 2972.14 995.359L2962.42 994.69 2963.3 976.915 2962.23 955.364 2965.75 955.364C3012.99 955.364 3051.29 916.394 3051.29 868.321L3051.29 868.321C3051.29 820.248 3012.99 781.277 2965.75 781.277L2878.89 781.277 2867.22 772.913C2858.77 767.664 2849.94 762.971 2840.8 758.885L2827 753.825Z" fill="#000000" fill-rule="evenodd" fill-opacity="1"/><path d="M2552.94 756.963C2570.15 755.763 2596.81 764.91 2629.64 782.474L2636.66 786.434 2623.36 794.139 2615.42 799.771 2601.84 792.193C2578.81 780.148 2563 776.229 2557.25 782.39 2538.83 802.104 2630.37 917.563 2761.71 1040.28 2778.13 1055.61 2794.39 1070.34 2810.32 1084.33L2847.87 1116.27 2844.91 1118.97C2840.07 1123.01 2835.07 1126.8 2829.95 1130.35L2825.01 1133.46 2821.2 1130.43C2795.41 1109.44 2768.8 1086.25 2742.08 1061.29 2599.57 928.139 2507.76 794.812 2537.02 763.493 2540.68 759.578 2546.05 757.443 2552.94 756.963Z" fill="#000000" fill-rule="evenodd" fill-opacity="1"/><path d="M2551.85 855.055 2566.46 872.912 2574.58 882.207 2572.49 885.698C2557.83 913.111 2549.5 944.526 2549.5 977.916 2549.5 1038.02 2576.48 1091.72 2618.82 1127.21L2629.45 1135.28 2616.52 1147.53 2604.45 1158.27 2597.52 1153.02C2547.73 1111.4 2516 1048.41 2516 977.916 2516 938.753 2525.79 901.907 2543.04 869.755ZM2740 751C2863.71 751 2964 852.594 2964 977.916 2964 1040.58 2938.93 1097.31 2898.39 1138.37L2885.93 1149.84 2940.74 1208 2890.4 1208 2856.16 1171.67 2846.77 1177.45C2815.03 1194.91 2778.66 1204.83 2740 1204.83 2709.07 1204.83 2679.61 1198.48 2652.81 1187L2634.32 1177.98 2652.66 1162.82 2662.11 1154.35 2665.85 1156.18C2688.64 1165.97 2713.7 1171.38 2740 1171.38 2845.21 1171.38 2930.5 1084.77 2930.5 977.916 2930.5 871.067 2845.21 784.449 2740 784.449 2687.39 784.449 2639.77 806.103 2605.29 841.114L2597.71 850.444 2579.68 830.216 2575.05 824.767 2581.61 817.462C2622.14 776.399 2678.14 751 2740 751Z" fill="#0E2841" fill-rule="evenodd" fill-opacity="1"/></g></g></svg>