<svg width="1164" height="976" xmlns="http://www.w3.org/2000/svg" xmlns:xlink="http://www.w3.org/1999/xlink" xml:space="preserve" overflow="hidden"><defs><clipPath id="clip0"><rect x="421" y="614" width="1164" height="976"/></clipPath><clipPath id="clip1"><rect x="421" y="614" width="1164" height="976"/></clipPath></defs><g clip-path="url(#clip0)" transform="translate(-421 -614)"><g clip-path="url(#clip1)"><path d="M475.051 1550.52C473.25 1516.79 491.601 1460.34 526.298 1388.4L534.11 1372.96 548.518 1396.41 559.103 1410.04 544.151 1439.9C520.342 1490.26 512.352 1523.17 524.017 1532.24 561.343 1561.29 785.79 1335.28 1025.33 1027.43 1055.28 988.953 1084.04 951.016 1111.37 914.03L1173.82 827.232 1178.92 832.076C1186.53 840.148 1193.68 848.612 1200.34 857.431L1206.16 866.058 1200.24 874.785C1159.17 934.041 1113.85 995.762 1065.12 1058.39 805.202 1392.42 546.428 1625.79 487.129 1579.65 479.716 1573.88 475.772 1564.02 475.051 1550.52Z" fill="#FFFFFF" fill-rule="evenodd" fill-opacity="1"/><path d="M1066 632 1346.04 632C1477.9 632 1584.8 738.806 1584.8 870.558L1584.8 870.558C1584.8 969.372 1524.67 1054.15 1438.97 1090.37L1419.36 1096.45 1454.05 1109.88C1537.05 1151.89 1591.22 1240.59 1584.43 1339.17L1584.43 1339.17C1576.51 1454.18 1488.24 1544.53 1378.17 1559.26L1354.72 1560 1289.87 1488.7 1340.29 1492.17C1437.36 1498.84 1521.56 1424.26 1528.36 1325.57L1528.36 1325.57C1535.15 1226.89 1461.98 1141.48 1364.91 1134.81L1344.89 1133.43 1346.72 1096.85 1344.51 1052.51 1351.76 1052.51C1449.06 1052.51 1527.93 972.322 1527.93 873.405L1527.93 873.405C1527.93 774.488 1449.06 694.299 1351.76 694.299L1172.86 694.299 1148.84 677.089C1131.43 666.288 1113.25 656.633 1094.42 648.224L1066 637.813Z" fill="#FFFFFF" fill-rule="evenodd" fill-opacity="1"/><path d="M478.391 618.106C514.772 616.497 571.69 637.223 642.143 676.037L657.195 684.767 629.47 700.308 612.949 711.765 583.811 695.051C534.41 668.407 500.724 659.292 488.869 671.981 450.933 712.585 650.915 961.073 935.541 1226.99 971.119 1260.23 1006.34 1292.17 1040.8 1322.54L1121.99 1391.93 1115.87 1397.47C1105.84 1405.73 1095.48 1413.47 1084.82 1420.68L1074.53 1426.97 1066.3 1420.38C1010.58 1374.72 953.013 1324.37 895.106 1270.27 586.274 981.735 384.772 695.537 445.039 631.031 452.572 622.968 463.839 618.75 478.391 618.106Z" fill="#FFFFFF" fill-rule="evenodd" fill-opacity="1"/><path d="M499.703 846.258 529.741 883.027 546.425 902.166 542.132 909.355C511.986 965.8 494.863 1030.49 494.863 1099.24 494.863 1223 550.342 1333.57 637.383 1406.64L659.229 1423.25 632.645 1448.49 607.834 1470.6 593.579 1459.78C491.234 1374.09 426 1244.39 426 1099.24 426 1018.6 446.134 942.73 481.58 876.526ZM886.5 632C1140.83 632 1347 841.19 1347 1099.24 1347 1228.26 1295.46 1345.07 1212.12 1429.63L1186.5 1453.25 1299.19 1573 1195.7 1573 1125.3 1498.19 1106 1510.09C1040.75 1546.05 965.977 1566.48 886.5 1566.48 822.918 1566.48 762.346 1553.4 707.253 1529.76L669.249 1511.19 706.941 1479.97 726.37 1462.53 734.057 1466.3C780.912 1486.46 832.426 1497.6 886.5 1497.6 1102.79 1497.6 1278.14 1319.25 1278.14 1099.24 1278.14 879.228 1102.79 700.874 886.5 700.874 778.353 700.874 680.444 745.462 609.571 817.552L593.989 836.763 556.919 795.111 547.404 783.893 560.877 768.851C644.212 684.298 759.337 632 886.5 632Z" fill="#FFFFFF" fill-rule="evenodd" fill-opacity="1"/></g></g></svg>